<svg xmlns="http://www.w3.org/2000/svg" viewBox="0 0 581.333 581.333"><path d="m366.13 421.917-55.603-55.137c-26.83-26.61-40.247-39.913-55.64-44.777a66.669 66.669 0 0 0-41.537.45c-15.287 5.197-28.411 18.787-54.66 45.967L25.47 500.003m340.66-78.087 11.38-11.283c26.863-26.64 40.293-39.96 55.707-44.823a66.651 66.651 0 0 1 41.57.48c15.293 5.213 28.417 18.84 54.66 46.09l27.887 28.067m-191.203-18.53 133.703 133.967m0 0c-11.913 1.45-27.357 1.45-49.167 1.45h-320c-37.337 0-56.005 0-70.266-7.267a66.658 66.658 0 0 1-29.134-29.133c-3.001-5.89-4.762-12.53-5.797-20.93m474.364 55.88c8.477-1.03 15.17-2.793 21.1-5.817a66.656 66.656 0 0 0 29.133-29.133c7.267-14.26 7.267-32.93 7.267-70.267v-10.22M25.47 500.003C24 488.07 24 472.583 24 450.666V130.667c0-37.337 0-56.005 7.266-70.266A66.66 66.66 0 0 1 60.4 31.267c14.261-7.266 32.929-7.266 70.266-7.266h320c37.337 0 56.007 0 70.267 7.266a66.658 66.658 0 0 1 29.133 29.134c7.267 14.261 7.267 32.929 7.267 70.266v309.78m-280-270.784c0 36.82-29.847 66.667-66.667 66.667s-66.667-29.847-66.667-66.667 29.847-66.667 66.667-66.667 66.667 29.848 66.667 66.667z" fill="none" stroke="#000" stroke-linecap="round" stroke-linejoin="round" stroke-width="48"/></svg>