<svg xmlns="http://www.w3.org/2000/svg" viewBox="0 0 685.714 685.714"><path d="M187.013 498.701v62.338h-62.338v-62.338h62.338zm0-374.026v62.338h-62.338v-62.338h62.338zm374.026 0v62.338h-62.338v-62.338h62.338zM62.338 622.89h187.013V436.364H62.338V622.89zm0-373.539h187.013V62.338H62.338v187.013zm374.026 0h187.013V62.338H436.364v187.013zM311.689 374.026v311.688H0V374.026h311.689zm249.35 249.351v62.338h-62.338v-62.338h62.338zm124.675 0v62.338h-62.338v-62.338h62.338zm0-249.351v187.013H498.701v-62.338h-62.338v187.013h-62.338V374.026h187.013v62.338h62.338v-62.338h62.338zM311.689 0v311.688H0V0h311.689zm374.026 0v311.688H374.026V0h311.689z"/></svg>